<svg xmlns="http://www.w3.org/2000/svg" viewBox="0 0 32 32" width="32" height="32">
  <defs>
    <linearGradient id="fg" x1="0%" y1="0%" x2="100%" y2="100%">
      <stop offset="0%" style="stop-color:#7c3aed"/>
      <stop offset="100%" style="stop-color:#a855f7"/>
    </linearGradient>
    <linearGradient id="ag" x1="0%" y1="100%" x2="100%" y2="0%">
      <stop offset="0%" style="stop-color:#f59e0b"/>
      <stop offset="100%" style="stop-color:#fbbf24"/>
    </linearGradient>
  </defs>
  <circle cx="16" cy="16" r="15" fill="url(#fg)"/>
  <circle cx="16" cy="16" r="12" fill="none" stroke="rgba(255,255,255,0.2)" stroke-width="0.5"/>
  <g transform="translate(16, 16)">
    <path d="M-6,-5 L-6,5 L-1,5 C2,5 3,4 3,2 C3,0 2,-1 0,-1 C2,-1 3,-2 3,-4 C3,-5 2,-5 -1,-5 Z M-3,-3 L-1,-3 C1,-3 1,-2 1,-1.5 C1,-1 1,0 -1,0 L-3,0 Z M-3,2 L0,2 C1,2 2,2.5 2,3 C2,4 1,4 0,4 L-3,4 Z"
          fill="white"/>
    <path d="M5,-5 L5,5 L7,5 L7,1 L10,1 L10,-1 L7,-1 L7,-3 L11,-3 L11,-5 Z"
          fill="url(#ag)"/>
  </g>
  <circle cx="25" cy="6" r="2" fill="#fbbf24"/>
  <circle cx="27" cy="9" r="1" fill="#ec4899"/>
</svg>
